<svg xmlns="http://www.w3.org/2000/svg" xmlns:xlink="http://www.w3.org/1999/xlink" width="500" zoomAndPan="magnify" viewBox="0 0 375 374.999991" height="500" preserveAspectRatio="xMidYMid meet" version="1.0"><path fill="#ff8995" d="M 204.375 196.890625 C 410.472656 312.238281 256.933594 433.238281 192.765625 206.058594 C 256.933594 433.390625 62.753906 410.472656 178.097656 204.375 C 62.753906 410.472656 -58.246094 256.933594 168.933594 192.765625 C -58.398438 256.933594 -35.484375 62.753906 170.613281 178.097656 C -35.484375 62.753906 118.058594 -58.246094 182.222656 168.933594 C 118.058594 -58.398438 312.238281 -35.484375 196.890625 170.613281 C 312.238281 -35.484375 433.238281 118.058594 206.058594 182.222656 C 433.390625 118.058594 410.472656 312.238281 204.375 196.890625 Z M 204.375 196.890625 " fill-opacity="1" fill-rule="nonzero"/><path fill="#2f2f34" d="M 216.292969 187.570312 C 216.292969 188.511719 216.246094 189.449219 216.15625 190.386719 C 216.0625 191.324219 215.925781 192.25 215.742188 193.175781 C 215.558594 194.097656 215.328125 195.007812 215.054688 195.910156 C 214.785156 196.808594 214.464844 197.695312 214.105469 198.5625 C 213.746094 199.429688 213.34375 200.28125 212.902344 201.109375 C 212.457031 201.941406 211.976562 202.746094 211.453125 203.527344 C 210.929688 204.308594 210.371094 205.066406 209.773438 205.792969 C 209.175781 206.519531 208.546875 207.214844 207.878906 207.878906 C 207.214844 208.546875 206.519531 209.175781 205.792969 209.773438 C 205.066406 210.371094 204.308594 210.929688 203.527344 211.453125 C 202.746094 211.976562 201.941406 212.457031 201.109375 212.902344 C 200.28125 213.34375 199.429688 213.746094 198.5625 214.105469 C 197.695312 214.464844 196.808594 214.785156 195.910156 215.054688 C 195.007812 215.328125 194.097656 215.558594 193.175781 215.742188 C 192.25 215.925781 191.324219 216.0625 190.386719 216.15625 C 189.449219 216.246094 188.511719 216.292969 187.570312 216.292969 C 186.628906 216.292969 185.691406 216.246094 184.753906 216.15625 C 183.820312 216.0625 182.890625 215.925781 181.96875 215.742188 C 181.046875 215.558594 180.132812 215.328125 179.234375 215.054688 C 178.332031 214.785156 177.449219 214.464844 176.578125 214.105469 C 175.710938 213.746094 174.859375 213.34375 174.03125 212.902344 C 173.203125 212.457031 172.394531 211.976562 171.613281 211.453125 C 170.832031 210.929688 170.078125 210.371094 169.351562 209.773438 C 168.621094 209.175781 167.925781 208.546875 167.261719 207.878906 C 166.597656 207.214844 165.964844 206.519531 165.367188 205.792969 C 164.773438 205.066406 164.210938 204.308594 163.691406 203.527344 C 163.167969 202.746094 162.683594 201.941406 162.242188 201.109375 C 161.796875 200.28125 161.394531 199.429688 161.035156 198.5625 C 160.675781 197.695312 160.359375 196.808594 160.085938 195.910156 C 159.8125 195.007812 159.585938 194.097656 159.402344 193.175781 C 159.21875 192.25 159.078125 191.324219 158.988281 190.386719 C 158.894531 189.449219 158.847656 188.511719 158.847656 187.570312 C 158.847656 186.628906 158.894531 185.691406 158.988281 184.753906 C 159.078125 183.820312 159.21875 182.890625 159.402344 181.96875 C 159.585938 181.046875 159.8125 180.132812 160.085938 179.234375 C 160.359375 178.332031 160.675781 177.449219 161.035156 176.578125 C 161.394531 175.710938 161.796875 174.859375 162.242188 174.03125 C 162.683594 173.203125 163.167969 172.394531 163.691406 171.613281 C 164.210938 170.832031 164.773438 170.078125 165.367188 169.351562 C 165.964844 168.621094 166.597656 167.925781 167.261719 167.261719 C 167.925781 166.597656 168.621094 165.964844 169.351562 165.367188 C 170.078125 164.773438 170.832031 164.210938 171.613281 163.691406 C 172.394531 163.167969 173.203125 162.683594 174.03125 162.242188 C 174.859375 161.796875 175.710938 161.394531 176.578125 161.035156 C 177.449219 160.675781 178.332031 160.359375 179.234375 160.085938 C 180.132812 159.8125 181.046875 159.585938 181.96875 159.402344 C 182.890625 159.21875 183.820312 159.078125 184.753906 158.988281 C 185.691406 158.894531 186.628906 158.847656 187.570312 158.847656 C 188.511719 158.847656 189.449219 158.894531 190.386719 158.988281 C 191.324219 159.078125 192.25 159.21875 193.175781 159.402344 C 194.097656 159.585938 195.007812 159.8125 195.910156 160.085938 C 196.808594 160.359375 197.695312 160.675781 198.5625 161.035156 C 199.429688 161.394531 200.28125 161.796875 201.109375 162.242188 C 201.941406 162.683594 202.746094 163.167969 203.527344 163.691406 C 204.308594 164.210938 205.066406 164.773438 205.792969 165.367188 C 206.519531 165.964844 207.214844 166.597656 207.878906 167.261719 C 208.546875 167.925781 209.175781 168.621094 209.773438 169.351562 C 210.371094 170.078125 210.929688 170.832031 211.453125 171.613281 C 211.976562 172.394531 212.457031 173.203125 212.902344 174.03125 C 213.34375 174.859375 213.746094 175.710938 214.105469 176.578125 C 214.464844 177.449219 214.785156 178.332031 215.054688 179.234375 C 215.328125 180.132812 215.558594 181.046875 215.742188 181.96875 C 215.925781 182.890625 216.0625 183.820312 216.15625 184.753906 C 216.246094 185.691406 216.292969 186.628906 216.292969 187.570312 Z M 216.292969 187.570312 " fill-opacity="1" fill-rule="nonzero"/></svg>